<?xml version="1.0" standalone="no"?>
<!DOCTYPE svg PUBLIC "-//W3C//DTD SVG 20010904//EN"
 "http://www.w3.org/TR/2001/REC-SVG-20010904/DTD/svg10.dtd">
<svg version="1.0" xmlns="http://www.w3.org/2000/svg"
 width="217.000000pt" height="60.000000pt" viewBox="0 0 217.000000 60.000000"
 preserveAspectRatio="xMidYMid meet">

<g transform="translate(0.000000,60.000000) scale(0.100000,-0.100000)"
fill="#D5CCFF" stroke="none">
<path d="M45 508 c-9 -37 -2 -360 9 -377 13 -20 26 5 26 49 0 20 10 56 23 80
40 81 105 87 93 8 -9 -55 -24 -81 -57 -100 -16 -9 -29 -24 -29 -33 0 -31 34
-14 94 47 l61 61 5 -54 c4 -43 9 -55 24 -57 12 -3 27 5 37 19 14 18 19 20 19
8 0 -9 9 -24 20 -34 18 -17 21 -17 45 -1 14 9 33 33 43 52 l16 35 12 -33 c17
-52 49 -50 74 3 l19 43 3 -49 c5 -78 27 -65 53 30 23 86 40 125 55 125 11 0
12 -16 14 -127 2 -109 38 -126 78 -36 l22 48 7 -35 c8 -38 40 -70 71 -70 12 0
36 16 54 36 28 29 34 32 34 16 0 -10 9 -27 20 -37 18 -17 21 -17 45 -1 14 9
33 33 43 52 l16 35 12 -33 c22 -68 72 -39 88 52 5 28 2 25 -12 -14 -30 -81
-42 -71 -42 34 0 76 -3 91 -14 87 -8 -3 -20 1 -26 9 -35 41 -100 -12 -126
-102 -21 -74 -64 -120 -94 -104 -29 15 -43 57 -36 104 9 56 33 96 58 96 18 0
20 -4 14 -32 -4 -27 -4 -29 5 -15 6 10 8 29 5 43 -5 18 -13 24 -35 24 -15 0
-35 -8 -43 -17 -27 -31 -50 -85 -45 -104 3 -11 2 -17 -2 -15 -4 3 -13 -10 -19
-29 -7 -18 -19 -39 -27 -45 -13 -11 -15 -2 -15 68 0 87 -11 132 -33 132 -22 0
-54 -42 -69 -87 -15 -51 -29 -57 -22 -10 6 38 -7 89 -24 95 -8 2 -12 -11 -13
-40 -1 -50 -30 -140 -47 -146 -9 -3 -12 22 -12 88 0 76 -3 91 -14 87 -8 -3
-20 1 -26 9 -36 43 -91 -5 -129 -110 -40 -113 -51 -110 -51 13 0 104 -14 136
-26 60 -4 -23 -18 -53 -30 -68 l-24 -26 6 42 c5 31 2 50 -10 68 -25 38 -62 33
-108 -15 l-38 -41 0 118 c0 118 -12 174 -25 121z m429 -187 c17 -19 17 -23 2
-68 -21 -64 -52 -113 -71 -113 -32 0 -12 140 26 187 15 18 23 16 43 -6z m620
0 c17 -19 17 -23 2 -68 -21 -64 -52 -113 -71 -113 -32 0 -12 140 26 187 15 18
23 16 43 -6z m-949 -171 c-3 -5 -11 -10 -16 -10 -6 0 -7 5 -4 10 3 6 11 10 16
10 6 0 7 -4 4 -10z"/>
<path d="M1857 502 c-29 -31 -47 -91 -55 -174 -8 -74 -6 -86 15 -129 31 -65
66 -84 98 -53 15 15 17 15 31 -5 17 -23 52 -28 76 -9 20 17 69 108 57 108 -5
0 -9 18 -9 40 0 96 -110 112 -117 16 -2 -35 -24 -115 -36 -133 -24 -37 -70 16
-82 93 -6 41 -3 50 34 105 57 85 68 159 23 159 -10 0 -26 -8 -35 -18z m50 -32
c-6 -50 -59 -144 -65 -116 -5 24 16 105 34 134 23 35 37 27 31 -18z m143 -160
c15 -28 13 -80 -4 -80 -20 0 -64 37 -71 61 -10 29 21 62 46 48 10 -5 23 -18
29 -29z m-15 -90 c19 0 19 -20 -1 -48 -10 -15 -24 -22 -37 -20 -19 3 -22 11
-25 52 l-3 49 25 -16 c14 -10 32 -17 41 -17z"/>
<path d="M1209 496 c7 -8 13 -84 16 -207 5 -182 12 -227 34 -203 4 5 14 62 20
128 15 141 35 224 60 250 35 35 41 12 41 -152 0 -86 3 -174 6 -195 11 -65 29
-36 35 59 13 176 67 325 106 292 12 -10 14 -45 11 -194 -2 -129 0 -186 8 -194
20 -20 52 -1 64 35 12 35 24 44 35 25 3 -5 21 -10 40 -10 25 0 40 8 64 35 17
20 31 39 31 43 0 4 -12 -8 -26 -25 -15 -20 -35 -33 -48 -33 -46 0 -65 53 -22
64 29 7 86 70 86 95 0 51 -72 50 -115 -1 -26 -31 -31 -45 -39 -113 -6 -52 -23
-95 -36 -95 -7 0 -9 52 -4 168 6 146 5 172 -10 200 -11 22 -24 32 -40 32 -29
0 -49 -22 -78 -85 l-22 -50 -7 57 c-7 66 -21 88 -55 88 -29 0 -56 -40 -74
-108 -22 -87 -29 -91 -29 -21 -1 84 -16 129 -43 129 -16 0 -18 -3 -9 -14z
m549 -189 c4 -21 -58 -87 -82 -87 -9 0 -16 4 -16 9 0 18 22 66 38 84 19 22 56
18 60 -6z"/>
<path d="M275 410 c-11 -17 5 -32 21 -19 7 6 11 15 8 20 -7 12 -21 11 -29 -1z"/>
</g>
</svg>
